<svg xmlns="http://www.w3.org/2000/svg" width="1000" height="1000"><path fill="#f54900" d="M0 0h1000v1000H0Z"/><clipPath id="a"><path d="M150 150h700v700H150Z"/></clipPath><g clip-path="url(#a)"><clipPath id="b"><path d="M150 150h700v700H150Z"/></clipPath><g fill="none" stroke="#fff" stroke-linecap="round" stroke-linejoin="round" stroke-width="58.33" clip-path="url(#b)"><path d="M295.83 237.5h408.34a58.33 58.33 0 0 1 58.33 58.33v408.34a58.33 58.33 0 0 1-58.33 58.33H295.83a58.33 58.33 0 0 1-58.33-58.33V295.83a58.33 58.33 0 0 1 58.33-58.33Z"/><path d="M354.17 354.17h87.5v262.5h-87.5ZM558.33 354.17h87.5V500h-87.5Z"/></g></g></svg>